<?xml version="1.0" encoding="UTF-8" standalone="no"?>
<!-- Created with Inkscape (http://www.inkscape.org/) -->

<svg
   width="512"
   height="512"
   viewBox="0 0 512 512"
   version="1.1"
   id="svg1"
   inkscape:version="1.4.2 (ebf0e940d0, 2025-05-08)"
   sodipodi:docname="icon.svg"
   xml:space="preserve"
   inkscape:export-filename="icon.png"
   inkscape:export-xdpi="96"
   inkscape:export-ydpi="96"
   xmlns:inkscape="http://www.inkscape.org/namespaces/inkscape"
   xmlns:sodipodi="http://sodipodi.sourceforge.net/DTD/sodipodi-0.dtd"
   xmlns="http://www.w3.org/2000/svg"
   xmlns:svg="http://www.w3.org/2000/svg"><sodipodi:namedview
     id="namedview1"
     pagecolor="#00ff00"
     bordercolor="#999999"
     borderopacity="1"
     inkscape:showpageshadow="2"
     inkscape:pageopacity="0"
     inkscape:pagecheckerboard="false"
     inkscape:deskcolor="#d1d1d1"
     inkscape:document-units="px"
     inkscape:zoom="1.016466"
     inkscape:cx="226.76607"
     inkscape:cy="259.2315"
     inkscape:window-width="1376"
     inkscape:window-height="863"
     inkscape:window-x="0"
     inkscape:window-y="0"
     inkscape:window-maximized="1"
     inkscape:current-layer="layer1"
     inkscape:export-bgcolor="#000000ff" /><defs
     id="defs1" /><g
     inkscape:label="Layer 1"
     inkscape:groupmode="layer"
     id="layer1"><g
       style="display:inline;fill:#ffffff;fill-opacity:1;stroke:none"
       id="g2"
       transform="matrix(25.750594,0,0,25.750594,-53.007132,-53.051838)"
       inkscape:label="gear"><path
         d="M 12.884109,3.2625605 C 12.682971,3.2038708 12.455346,3.2038708 12,3.2038708 c -0.455346,0 -0.682971,0 -0.884109,0.05869 C 10.821514,3.3484596 10.561442,3.524519 10.372325,3.7659532 10.24312,3.9309002 10.158579,4.1422809 9.9895078,4.5650425 9.7464219,5.1727572 9.0717979,5.4856942 8.4508303,5.2787799 L 7.8929798,5.0928982 C 7.4972614,4.9609953 7.2993974,4.8950341 7.1054037,4.883736 6.8204384,4.8671308 6.5368219,4.9340889 6.2893672,5.0763712 6.1209116,5.1732361 5.9734396,5.3207179 5.6784858,5.6156717 5.3650015,5.9291559 5.2082545,6.0858932 5.1086823,6.2648162 4.9623832,6.5276739 4.9004975,6.8291857 4.9314208,7.1284202 c 0.021042,0.2036695 0.1033643,0.4094891 0.268018,0.8211187 0.2578537,0.6446292 0.00979,1.3811095 -0.585529,1.738379 L 4.3426861,9.8506854 C 3.927411,10.099841 3.7197735,10.224452 3.5689492,10.395977 c -0.1334666,0.151782 -0.2341041,0.329562 -0.2955988,0.522099 -0.06948,0.217558 -0.06948,0.46209 -0.06948,0.951253 0,0.579176 0,0.868666 0.092477,1.116619 0.081716,0.219024 0.2146256,0.415275 0.3876357,0.572531 0.1958018,0.177877 0.462002,0.284408 0.994373,0.497372 0.54407,0.217557 0.8241974,0.821558 0.6388922,1.377474 L 5.106972,16.064203 c -0.1456444,0.436874 -0.2184763,0.655409 -0.225093,0.870035 -0.00797,0.258117 0.052376,0.513694 0.1749159,0.740927 0.1019179,0.189117 0.2647733,0.351943 0.5904451,0.677595 0.3256816,0.325652 0.4885272,0.488478 0.6775463,0.590416 0.2272822,0.122559 0.4828879,0.182959 0.7409761,0.174945 0.2146451,-0.0066 0.4331214,-0.07946 0.8700741,-0.225083 l 0.5150426,-0.17172 c 0.6209188,-0.206905 1.2955526,0.105944 1.5386287,0.713659 0.1690712,0.422703 0.2536122,0.634103 0.3828172,0.79908 0.189117,0.241404 0.449189,0.417523 0.743566,0.503431 0.201138,0.05864 0.428763,0.05864 0.884109,0.05864 0.455346,0 0.682971,0 0.884109,-0.05864 0.294377,-0.08591 0.554449,-0.262027 0.743566,-0.503431 0.129205,-0.164977 0.213746,-0.376377 0.382827,-0.79908 0.243066,-0.607715 0.917729,-0.920564 1.538541,-0.713464 l 0.514671,0.171623 c 0.436972,0.145624 0.655507,0.218437 0.870133,0.225083 0.258117,0.0079 0.513694,-0.05239 0.740927,-0.174946 0.189019,-0.101937 0.351943,-0.264763 0.677595,-0.590415 0.325652,-0.325653 0.488478,-0.488576 0.590416,-0.677595 0.122559,-0.227234 0.182862,-0.482908 0.174945,-0.740928 -0.0066,-0.214625 -0.07946,-0.43316 -0.225083,-0.870132 l -0.21013,-0.63039 c -0.185403,-0.55611 0.0948,-1.160307 0.639088,-1.377962 0.532361,-0.212964 0.798591,-0.319495 0.994451,-0.497372 0.172991,-0.157256 0.30591,-0.353507 0.387616,-0.572531 0.09246,-0.247953 0.09246,-0.537443 0.09246,-1.116619 0,-0.489163 0,-0.733695 -0.06949,-0.951253 -0.06148,-0.192537 -0.162142,-0.370317 -0.29555,-0.522099 -0.150903,-0.171525 -0.358491,-0.296136 -0.773766,-0.5452916 L 19.385719,9.6877517 C 18.790416,9.3305409 18.542268,8.5940801 18.80019,7.9494607 18.964775,7.5378507 19.047166,7.3320213 19.068179,7.128342 19.099063,6.8291075 19.037197,6.5276055 18.890888,6.264738 18.791296,6.0858248 18.634627,5.9290778 18.321094,5.6155935 18.02613,5.3206495 17.878649,5.1731677 17.710252,5.0763028 17.462787,4.9340108 17.179161,4.8670624 16.894166,4.8836578 16.700163,4.8949657 16.502348,4.9609171 16.10662,5.09282 L 15.54914,5.2786529 C 14.928231,5.4856258 14.253568,5.1727377 14.010502,4.5650425 13.841421,4.1422809 13.75688,3.9309002 13.627675,3.7659532 13.438558,3.524519 13.178486,3.3484596 12.884109,3.2625605 Z"
         stroke="#000000"
         stroke-width="1.9547"
         stroke-linecap="round"
         stroke-linejoin="round"
         id="path2-3"
         style="fill:#ffffff;fill-opacity:1;stroke:none"
         inkscape:label="gear" /><path
         d="m 15.556775,12 c 0,1.964407 -1.592368,3.556775 -3.556775,3.556775 -1.964407,0 -3.5567748,-1.592368 -3.5567748,-3.556775 0,-1.964407 1.5923678,-3.5567748 3.5567748,-3.5567748 1.964407,0 3.556775,1.5923678 3.556775,3.5567748 z"
         stroke="#000000"
         stroke-width="2.37118"
         stroke-linecap="round"
         stroke-linejoin="round"
         id="path1-5"
         style="fill:#000000;fill-opacity:1;stroke:none"
         inkscape:label="cutout" /></g><g
       id="g3"
       inkscape:label="hammer"
       transform="matrix(1.3340591,0,0,1.3340591,-107.51915,-99.563856)"><path
         fill="#e0e0e0"
         d="m 117.53331,183.80704 40.5967,70.32781 62.04132,-35.82062 107.46186,186.12395 A 35.819833,35.819833 0 0 0 389.6745,368.61756 L 278.63058,176.2847 l 82.72175,-47.76081 -5.9701,-10.34022 c 0,0 -29.85052,-51.701103 -91.89183,-15.88048 l -82.72176,47.76082 -7.40293,1.50447 z"
         id="path1"
         style="display:inline;fill:#000000;fill-opacity:1;stroke:#000000;stroke-width:44.9755187;stroke-dasharray:none;stroke-opacity:1"
         inkscape:label="hammer cut out of gear" /><path
         fill="#e0e0e0"
         d="m 117.53331,183.80704 40.5967,70.32781 62.04132,-35.82062 107.46186,186.12395 A 35.819833,35.819833 0 0 0 389.6745,368.61756 L 278.63058,176.2847 l 82.72175,-47.76081 -5.9701,-10.34022 c 0,0 -29.85052,-51.701103 -91.89183,-15.88048 l -82.72176,47.76082 -7.40293,1.50447 z"
         id="path2"
         style="display:inline;fill:#ffffff;fill-opacity:1;stroke-width:23.88;stroke-dasharray:none"
         inkscape:label="hammer" /></g></g></svg>
